<?xml version="1.0" encoding="UTF-8"?><svg xmlns="http://www.w3.org/2000/svg" xmlns:xlink="http://www.w3.org/1999/xlink" height="180.3" preserveAspectRatio="xMidYMid meet" version="1.0" viewBox="0.0 0.0 502.0 180.3" width="502.0" zoomAndPan="magnify"><defs><clipPath id="a"><path d="M 0 0 L 502.011719 0 L 502.011719 180.328125 L 0 180.328125 Z M 0 0"/></clipPath><clipPath id="b"><path d="M 1 25 L 501 25 L 501 155 L 1 155 Z M 1 25"/></clipPath><clipPath id="c"><path d="M 498.199219 135.441406 C 491.507812 142.78125 467.742188 143.519531 444.757812 144.234375 C 419.304688 145.027344 395.042969 145.78125 388.058594 154.550781 L 388.058594 115.210938 C 443.070312 112.4375 485.726562 113.707031 497.125 124.0625 C 499.066406 125.828125 500.015625 127.769531 500.015625 130.003906 C 500.015625 130.042969 500.03125 130.078125 500.035156 130.117188 C 500.019531 130.207031 499.992188 130.296875 500 130.390625 C 500.117188 132.332031 499.527344 133.984375 498.199219 135.441406 Z M 3.8125 44.894531 C 10.503906 37.554688 34.269531 36.816406 57.25 36.101562 C 82.707031 35.308594 106.96875 34.554688 113.953125 25.78125 L 113.953125 56.625 C 56.363281 60.902344 12.882812 61.65625 3.613281 53.234375 C 2.535156 52.257812 2.011719 51.199219 2.011719 50.003906 C 2.011719 49.992188 2.007812 49.984375 2.007812 49.972656 C 2.007812 49.964844 2.011719 49.953125 2.011719 49.945312 C 1.894531 48.003906 2.480469 46.351562 3.8125 44.894531 Z M 3.8125 44.894531"/></clipPath></defs><g><g clip-path="url(#a)"><g id="change1_1"><path d="M 502.015625 50.003906 C 502.015625 47.214844 500.820312 44.71875 498.46875 42.578125 C 476.3125 22.453125 348.828125 34.738281 225.546875 46.617188 C 186.972656 50.332031 149.179688 53.972656 115.953125 56.476562 L 115.953125 20.003906 C 115.953125 14.695312 114.660156 10.933594 112.003906 8.503906 C 106.917969 3.855469 97.574219 4.699219 85.742188 5.765625 C 70.492188 7.136719 51.519531 8.847656 32.414062 0.0976562 C 31.957031 -0.113281 31.414062 0.0507812 31.148438 0.476562 C 30.882812 0.902344 30.972656 1.460938 31.363281 1.777344 L 61.554688 26.460938 L 31.847656 35.257812 C 18.066406 36.335938 6.96875 38.464844 2.332031 43.546875 C 0.660156 45.382812 -0.117188 47.554688 0.015625 50 C 0.015625 50 0.015625 50.003906 0.015625 50.003906 L 0.015625 130.003906 C 0.015625 131.769531 0.773438 133.355469 2.269531 134.710938 C 7.738281 139.683594 24.09375 141.644531 47.734375 141.644531 C 90.421875 141.644531 156.855469 135.242188 225.738281 128.609375 C 280.035156 123.375 337.6875 117.820312 386.058594 115.3125 L 386.058594 160.328125 C 386.058594 165.640625 387.351562 169.402344 390.011719 171.832031 C 395.09375 176.476562 404.4375 175.632812 416.269531 174.570312 C 431.515625 173.195312 450.488281 171.488281 469.597656 180.238281 C 469.730469 180.300781 469.871094 180.328125 470.011719 180.328125 C 470.347656 180.328125 470.675781 180.160156 470.863281 179.859375 C 471.128906 179.433594 471.035156 178.875 470.644531 178.554688 L 440.457031 153.875 L 470.164062 145.078125 C 483.945312 144 495.042969 141.871094 499.675781 136.789062 C 501.367188 134.9375 502.144531 132.742188 501.996094 130.269531 C 501.992188 130.242188 501.980469 130.21875 501.976562 130.191406 C 501.988281 130.128906 502.015625 130.070312 502.015625 130.003906 L 502.015625 50.003906" fill="#fff"/></g><g id="change2_1"><path d="M 498.199219 135.441406 C 491.507812 142.78125 467.742188 143.519531 444.757812 144.234375 C 419.304688 145.027344 395.042969 145.78125 388.058594 154.550781 L 388.058594 115.210938 C 443.070312 112.4375 485.726562 113.707031 497.125 124.0625 C 499.066406 125.828125 500.015625 127.769531 500.015625 130.003906 C 500.015625 130.042969 500.03125 130.078125 500.035156 130.117188 C 500.019531 130.207031 499.992188 130.296875 500 130.390625 C 500.117188 132.332031 499.527344 133.984375 498.199219 135.441406 Z M 438.074219 152.492188 C 437.71875 152.597656 437.453125 152.890625 437.378906 153.253906 C 437.304688 153.617188 437.4375 153.992188 437.726562 154.226562 L 464.285156 175.941406 C 446.847656 169.808594 429.949219 171.328125 416.089844 172.578125 C 404.753906 173.601562 395.792969 174.40625 391.359375 170.355469 C 389.140625 168.324219 388.058594 165.046875 388.058594 160.328125 C 388.058594 148 416.914062 147.101562 444.820312 146.234375 C 450.429688 146.058594 455.964844 145.886719 461.257812 145.628906 Z M 225.546875 126.617188 C 118.972656 136.886719 18.308594 146.582031 3.613281 133.234375 C 2.535156 132.257812 2.011719 131.199219 2.011719 130.003906 L 2.011719 54.472656 C 2.09375 54.554688 2.179688 54.632812 2.269531 54.714844 C 12.023438 63.574219 56.398438 62.871094 114.914062 58.535156 C 114.925781 58.535156 114.9375 58.542969 114.953125 58.542969 C 114.980469 58.542969 115.003906 58.53125 115.03125 58.527344 C 148.578125 56.039062 186.761719 52.363281 225.738281 48.605469 C 342.867188 37.320312 475.621094 24.527344 497.125 44.058594 C 499.066406 45.828125 500.015625 47.769531 500.015625 50.003906 L 500.015625 124.246094 C 499.570312 123.667969 499.058594 123.113281 498.46875 122.578125 C 476.3125 102.453125 348.828125 114.738281 225.546875 126.617188 Z M 3.8125 44.894531 C 10.503906 37.554688 34.269531 36.816406 57.25 36.101562 C 82.707031 35.308594 106.96875 34.554688 113.953125 25.78125 L 113.953125 56.625 C 56.363281 60.902344 12.882812 61.65625 3.613281 53.234375 C 2.535156 52.257812 2.011719 51.199219 2.011719 50.003906 C 2.011719 49.992188 2.007812 49.984375 2.007812 49.972656 C 2.007812 49.964844 2.011719 49.953125 2.011719 49.945312 C 1.894531 48.003906 2.480469 46.351562 3.8125 44.894531 Z M 63.933594 27.84375 C 64.289062 27.738281 64.558594 27.445312 64.632812 27.082031 C 64.703125 26.71875 64.570312 26.34375 64.285156 26.109375 L 37.722656 4.394531 C 55.167969 10.527344 72.058594 9.003906 85.921875 7.757812 C 97.261719 6.734375 106.21875 5.929688 110.652344 9.980469 C 112.871094 12.011719 113.953125 15.289062 113.953125 20.003906 C 113.953125 32.335938 85.09375 33.234375 57.191406 34.101562 C 51.582031 34.277344 46.046875 34.449219 40.753906 34.707031 Z M 502.015625 50.003906 C 502.015625 47.214844 500.820312 44.71875 498.46875 42.578125 C 476.3125 22.453125 348.828125 34.738281 225.546875 46.617188 C 186.972656 50.332031 149.179688 53.972656 115.953125 56.476562 L 115.953125 20.003906 C 115.953125 14.695312 114.660156 10.933594 112.003906 8.503906 C 106.917969 3.855469 97.574219 4.699219 85.742188 5.765625 C 70.492188 7.136719 51.519531 8.847656 32.414062 0.0976562 C 31.957031 -0.113281 31.414062 0.0507812 31.148438 0.476562 C 30.882812 0.902344 30.972656 1.460938 31.363281 1.777344 L 61.554688 26.460938 L 31.847656 35.257812 C 18.066406 36.335938 6.96875 38.464844 2.332031 43.546875 C 0.660156 45.382812 -0.117188 47.554688 0.015625 50 C 0.015625 50 0.015625 50.003906 0.015625 50.003906 L 0.015625 130.003906 C 0.015625 131.769531 0.773438 133.355469 2.269531 134.710938 C 7.738281 139.683594 24.09375 141.644531 47.734375 141.644531 C 90.421875 141.644531 156.855469 135.242188 225.738281 128.609375 C 280.035156 123.375 337.6875 117.820312 386.058594 115.3125 L 386.058594 160.328125 C 386.058594 165.640625 387.351562 169.402344 390.011719 171.832031 C 395.09375 176.476562 404.4375 175.632812 416.269531 174.570312 C 431.515625 173.195312 450.488281 171.488281 469.597656 180.238281 C 469.730469 180.300781 469.871094 180.328125 470.011719 180.328125 C 470.347656 180.328125 470.675781 180.160156 470.863281 179.859375 C 471.128906 179.433594 471.035156 178.875 470.644531 178.554688 L 440.457031 153.875 L 470.164062 145.078125 C 483.945312 144 495.042969 141.871094 499.675781 136.789062 C 501.367188 134.9375 502.144531 132.742188 501.996094 130.269531 C 501.992188 130.242188 501.980469 130.21875 501.976562 130.191406 C 501.988281 130.128906 502.015625 130.070312 502.015625 130.003906 L 502.015625 50.003906" fill="#100f0d"/></g></g><g clip-path="url(#b)"><g clip-path="url(#c)" id="change2_2"><path d="M -122.839844 161.546875 L -123.546875 160.839844 L 25.15625 12.136719 L 25.863281 12.84375 Z M -118.839844 161.546875 L -119.546875 160.839844 L 29.15625 12.136719 L 29.863281 12.84375 Z M -114.839844 161.546875 L -115.546875 160.839844 L 33.15625 12.136719 L 33.863281 12.84375 Z M -110.839844 161.546875 L -111.546875 160.839844 L 37.15625 12.136719 L 37.863281 12.84375 Z M -106.839844 161.546875 L -107.546875 160.839844 L 41.15625 12.136719 L 41.863281 12.84375 Z M -102.839844 161.546875 L -103.546875 160.839844 L 45.15625 12.136719 L 45.863281 12.84375 Z M -98.839844 161.546875 L -99.546875 160.839844 L 49.15625 12.136719 L 49.863281 12.84375 Z M -94.839844 161.546875 L -95.546875 160.839844 L 53.15625 12.136719 L 53.863281 12.84375 Z M -90.839844 161.546875 L -91.546875 160.839844 L 57.15625 12.136719 L 57.863281 12.84375 Z M -86.839844 161.546875 L -87.546875 160.839844 L 61.15625 12.136719 L 61.863281 12.84375 Z M -82.839844 161.546875 L -83.546875 160.839844 L 65.15625 12.136719 L 65.863281 12.84375 Z M -78.839844 161.546875 L -79.546875 160.839844 L 69.15625 12.136719 L 69.863281 12.84375 Z M -74.839844 161.546875 L -75.546875 160.839844 L 73.15625 12.136719 L 73.863281 12.84375 Z M -70.839844 161.546875 L -71.546875 160.839844 L 77.15625 12.136719 L 77.863281 12.84375 Z M -66.839844 161.546875 L -67.546875 160.839844 L 81.15625 12.136719 L 81.863281 12.84375 Z M -62.839844 161.546875 L -63.546875 160.839844 L 85.15625 12.136719 L 85.863281 12.84375 Z M -58.839844 161.546875 L -59.546875 160.839844 L 89.15625 12.136719 L 89.863281 12.84375 Z M -54.839844 161.546875 L -55.546875 160.839844 L 93.15625 12.136719 L 93.863281 12.84375 Z M -50.839844 161.546875 L -51.546875 160.839844 L 97.15625 12.136719 L 97.863281 12.84375 Z M -46.839844 161.546875 L -47.546875 160.839844 L 101.15625 12.136719 L 101.863281 12.84375 Z M -42.839844 161.546875 L -43.546875 160.839844 L 105.15625 12.136719 L 105.863281 12.84375 Z M -38.839844 161.546875 L -39.546875 160.839844 L 109.15625 12.136719 L 109.863281 12.84375 Z M -34.839844 161.546875 L -35.546875 160.839844 L 113.15625 12.136719 L 113.863281 12.84375 Z M -30.839844 161.546875 L -31.546875 160.839844 L 117.15625 12.136719 L 117.863281 12.84375 Z M -26.839844 161.546875 L -27.546875 160.839844 L 121.15625 12.136719 L 121.863281 12.84375 Z M -22.839844 161.546875 L -23.546875 160.839844 L 125.15625 12.136719 L 125.863281 12.84375 Z M -18.839844 161.546875 L -19.546875 160.839844 L 129.15625 12.136719 L 129.863281 12.84375 Z M -14.839844 161.546875 L -15.546875 160.839844 L 133.15625 12.136719 L 133.863281 12.84375 Z M -10.839844 161.546875 L -11.546875 160.839844 L 137.15625 12.136719 L 137.863281 12.84375 Z M -6.839844 161.546875 L -7.546875 160.839844 L 141.15625 12.136719 L 141.863281 12.84375 Z M -2.839844 161.546875 L -3.546875 160.839844 L 145.15625 12.136719 L 145.863281 12.84375 Z M 1.160156 161.546875 L 0.453125 160.839844 L 149.15625 12.136719 L 149.863281 12.84375 Z M 5.160156 161.546875 L 4.453125 160.839844 L 153.15625 12.136719 L 153.863281 12.84375 Z M 9.160156 161.546875 L 8.453125 160.839844 L 157.15625 12.136719 L 157.863281 12.84375 Z M 13.160156 161.546875 L 12.453125 160.839844 L 161.15625 12.136719 L 161.863281 12.84375 Z M 17.160156 161.546875 L 16.453125 160.839844 L 165.15625 12.136719 L 165.863281 12.84375 Z M 21.160156 161.546875 L 20.453125 160.839844 L 169.15625 12.136719 L 169.863281 12.84375 Z M 25.160156 161.546875 L 24.453125 160.839844 L 173.15625 12.136719 L 173.863281 12.84375 Z M 29.160156 161.546875 L 28.453125 160.839844 L 177.15625 12.136719 L 177.863281 12.84375 Z M 33.160156 161.546875 L 32.453125 160.839844 L 181.15625 12.136719 L 181.863281 12.84375 Z M 37.160156 161.546875 L 36.453125 160.839844 L 185.15625 12.136719 L 185.863281 12.84375 Z M 41.160156 161.546875 L 40.453125 160.839844 L 189.15625 12.136719 L 189.863281 12.84375 Z M 45.160156 161.546875 L 44.453125 160.839844 L 193.15625 12.136719 L 193.863281 12.84375 Z M 49.160156 161.546875 L 48.453125 160.839844 L 197.15625 12.136719 L 197.863281 12.84375 Z M 53.160156 161.546875 L 52.453125 160.839844 L 201.15625 12.136719 L 201.863281 12.84375 Z M 57.160156 161.546875 L 56.453125 160.839844 L 205.15625 12.136719 L 205.863281 12.84375 Z M 61.160156 161.546875 L 60.453125 160.839844 L 209.15625 12.136719 L 209.863281 12.84375 Z M 65.160156 161.546875 L 64.453125 160.839844 L 213.15625 12.136719 L 213.863281 12.84375 Z M 69.160156 161.546875 L 68.453125 160.839844 L 217.15625 12.136719 L 217.863281 12.84375 Z M 73.160156 161.546875 L 72.453125 160.839844 L 221.15625 12.136719 L 221.863281 12.84375 Z M 77.160156 161.546875 L 76.453125 160.839844 L 225.15625 12.136719 L 225.863281 12.84375 Z M 81.160156 161.546875 L 80.453125 160.839844 L 229.15625 12.136719 L 229.863281 12.84375 Z M 85.160156 161.546875 L 84.453125 160.839844 L 233.15625 12.136719 L 233.863281 12.84375 Z M 89.160156 161.546875 L 88.453125 160.839844 L 237.15625 12.136719 L 237.863281 12.84375 Z M 93.160156 161.546875 L 92.453125 160.839844 L 241.15625 12.136719 L 241.863281 12.84375 Z M 97.160156 161.546875 L 96.453125 160.839844 L 245.15625 12.136719 L 245.863281 12.84375 Z M 101.160156 161.546875 L 100.453125 160.839844 L 249.15625 12.136719 L 249.863281 12.84375 Z M 105.160156 161.546875 L 104.453125 160.839844 L 253.15625 12.136719 L 253.863281 12.84375 Z M 109.160156 161.546875 L 108.453125 160.839844 L 257.15625 12.136719 L 257.863281 12.84375 Z M 113.160156 161.546875 L 112.453125 160.839844 L 261.15625 12.136719 L 261.863281 12.84375 Z M 117.160156 161.546875 L 116.453125 160.839844 L 265.15625 12.136719 L 265.863281 12.84375 Z M 121.160156 161.546875 L 120.453125 160.839844 L 269.15625 12.136719 L 269.863281 12.84375 Z M 125.160156 161.546875 L 124.453125 160.839844 L 273.15625 12.136719 L 273.863281 12.84375 Z M 129.160156 161.546875 L 128.453125 160.839844 L 277.15625 12.136719 L 277.863281 12.84375 Z M 133.160156 161.546875 L 132.453125 160.839844 L 281.15625 12.136719 L 281.863281 12.84375 Z M 137.160156 161.546875 L 136.453125 160.839844 L 285.15625 12.136719 L 285.863281 12.84375 Z M 141.160156 161.546875 L 140.453125 160.839844 L 289.15625 12.136719 L 289.863281 12.84375 Z M 145.160156 161.546875 L 144.453125 160.839844 L 293.15625 12.136719 L 293.863281 12.84375 Z M 149.160156 161.546875 L 148.453125 160.839844 L 297.15625 12.136719 L 297.863281 12.84375 Z M 153.160156 161.546875 L 152.453125 160.839844 L 301.15625 12.136719 L 301.863281 12.84375 Z M 157.160156 161.546875 L 156.453125 160.839844 L 305.15625 12.136719 L 305.863281 12.84375 Z M 161.160156 161.546875 L 160.453125 160.839844 L 309.15625 12.136719 L 309.863281 12.84375 Z M 165.160156 161.546875 L 164.453125 160.839844 L 313.15625 12.136719 L 313.863281 12.84375 Z M 169.160156 161.546875 L 168.453125 160.839844 L 317.15625 12.136719 L 317.863281 12.84375 Z M 173.160156 161.546875 L 172.453125 160.839844 L 321.15625 12.136719 L 321.863281 12.84375 Z M 177.160156 161.546875 L 176.453125 160.839844 L 325.15625 12.136719 L 325.863281 12.84375 Z M 181.160156 161.546875 L 180.453125 160.839844 L 329.15625 12.136719 L 329.863281 12.84375 Z M 185.160156 161.546875 L 184.453125 160.839844 L 333.15625 12.136719 L 333.863281 12.84375 Z M 189.160156 161.546875 L 188.453125 160.839844 L 337.15625 12.136719 L 337.863281 12.84375 Z M 193.160156 161.546875 L 192.453125 160.839844 L 341.15625 12.136719 L 341.863281 12.84375 Z M 197.160156 161.546875 L 196.453125 160.839844 L 345.15625 12.136719 L 345.863281 12.84375 Z M 201.160156 161.546875 L 200.453125 160.839844 L 349.15625 12.136719 L 349.863281 12.84375 Z M 205.160156 161.546875 L 204.453125 160.839844 L 353.15625 12.136719 L 353.863281 12.84375 Z M 209.160156 161.546875 L 208.453125 160.839844 L 357.15625 12.136719 L 357.863281 12.84375 Z M 213.160156 161.546875 L 212.453125 160.839844 L 361.15625 12.136719 L 361.863281 12.84375 Z M 217.160156 161.546875 L 216.453125 160.839844 L 365.15625 12.136719 L 365.863281 12.84375 Z M 221.160156 161.546875 L 220.453125 160.839844 L 369.15625 12.136719 L 369.863281 12.84375 Z M 225.160156 161.546875 L 224.453125 160.839844 L 373.15625 12.136719 L 373.863281 12.84375 Z M 229.160156 161.546875 L 228.453125 160.839844 L 377.15625 12.136719 L 377.863281 12.84375 Z M 233.160156 161.546875 L 232.453125 160.839844 L 381.15625 12.136719 L 381.863281 12.84375 Z M 237.160156 161.546875 L 236.453125 160.839844 L 385.15625 12.136719 L 385.863281 12.84375 Z M 241.160156 161.546875 L 240.453125 160.839844 L 389.15625 12.136719 L 389.863281 12.84375 Z M 245.160156 161.546875 L 244.453125 160.839844 L 393.15625 12.136719 L 393.863281 12.84375 Z M 249.160156 161.546875 L 248.453125 160.839844 L 397.15625 12.136719 L 397.863281 12.84375 Z M 253.15625 161.546875 L 252.449219 160.839844 L 401.15625 12.136719 L 401.863281 12.84375 Z M 257.15625 161.546875 L 256.449219 160.839844 L 405.15625 12.136719 L 405.863281 12.84375 Z M 261.15625 161.546875 L 260.449219 160.839844 L 409.15625 12.136719 L 409.863281 12.84375 Z M 265.15625 161.546875 L 264.449219 160.839844 L 413.15625 12.136719 L 413.863281 12.84375 Z M 269.15625 161.546875 L 268.449219 160.839844 L 417.15625 12.136719 L 417.863281 12.84375 Z M 273.15625 161.546875 L 272.449219 160.839844 L 421.15625 12.136719 L 421.863281 12.84375 Z M 277.15625 161.546875 L 276.449219 160.839844 L 425.15625 12.136719 L 425.863281 12.84375 Z M 281.15625 161.546875 L 280.449219 160.839844 L 429.15625 12.136719 L 429.863281 12.84375 Z M 285.15625 161.546875 L 284.449219 160.839844 L 433.15625 12.136719 L 433.863281 12.84375 Z M 289.15625 161.546875 L 288.449219 160.839844 L 437.15625 12.136719 L 437.863281 12.84375 Z M 293.15625 161.546875 L 292.449219 160.839844 L 441.15625 12.136719 L 441.863281 12.84375 Z M 297.15625 161.546875 L 296.449219 160.839844 L 445.15625 12.136719 L 445.863281 12.84375 Z M 301.15625 161.546875 L 300.449219 160.839844 L 449.15625 12.136719 L 449.863281 12.84375 Z M 305.15625 161.546875 L 304.449219 160.839844 L 453.15625 12.136719 L 453.863281 12.84375 Z M 309.15625 161.546875 L 308.449219 160.839844 L 457.15625 12.136719 L 457.863281 12.84375 Z M 313.15625 161.546875 L 312.449219 160.839844 L 461.15625 12.136719 L 461.863281 12.84375 Z M 317.15625 161.546875 L 316.449219 160.839844 L 465.15625 12.136719 L 465.863281 12.84375 Z M 321.15625 161.546875 L 320.449219 160.839844 L 469.15625 12.136719 L 469.863281 12.84375 Z M 325.15625 161.546875 L 324.449219 160.839844 L 473.15625 12.136719 L 473.863281 12.84375 Z M 329.15625 161.546875 L 328.449219 160.839844 L 477.15625 12.136719 L 477.863281 12.84375 Z M 333.15625 161.546875 L 332.449219 160.839844 L 481.15625 12.136719 L 481.863281 12.84375 Z M 337.15625 161.546875 L 336.449219 160.839844 L 485.15625 12.136719 L 485.863281 12.84375 Z M 341.15625 161.546875 L 340.449219 160.839844 L 489.15625 12.136719 L 489.863281 12.84375 Z M 345.15625 161.546875 L 344.449219 160.839844 L 493.15625 12.136719 L 493.863281 12.84375 Z M 349.15625 161.546875 L 348.449219 160.839844 L 497.15625 12.136719 L 497.863281 12.84375 Z M 353.15625 161.546875 L 352.449219 160.839844 L 501.15625 12.136719 L 501.863281 12.84375 Z M 357.15625 161.546875 L 356.449219 160.839844 L 505.15625 12.136719 L 505.863281 12.84375 Z M 361.15625 161.546875 L 360.449219 160.839844 L 509.15625 12.136719 L 509.863281 12.84375 Z M 365.15625 161.546875 L 364.449219 160.839844 L 513.15625 12.136719 L 513.863281 12.84375 Z M 369.15625 161.546875 L 368.449219 160.839844 L 517.15625 12.136719 L 517.863281 12.84375 Z M 373.15625 161.546875 L 372.449219 160.839844 L 521.15625 12.136719 L 521.863281 12.84375 Z M 377.15625 161.546875 L 376.449219 160.839844 L 525.15625 12.136719 L 525.863281 12.84375 Z M 381.15625 161.546875 L 380.449219 160.839844 L 529.15625 12.136719 L 529.863281 12.84375 Z M 385.15625 161.546875 L 384.449219 160.839844 L 533.15625 12.136719 L 533.863281 12.84375 Z M 389.15625 161.546875 L 388.449219 160.839844 L 537.15625 12.136719 L 537.863281 12.84375 Z M 393.15625 161.546875 L 392.449219 160.839844 L 541.15625 12.136719 L 541.863281 12.84375 Z M 397.15625 161.546875 L 396.449219 160.839844 L 545.15625 12.136719 L 545.863281 12.84375 Z M 401.15625 161.546875 L 400.449219 160.839844 L 549.15625 12.136719 L 549.863281 12.84375 Z M 405.15625 161.546875 L 404.449219 160.839844 L 553.15625 12.136719 L 553.863281 12.84375 Z M 409.15625 161.546875 L 408.449219 160.839844 L 557.15625 12.136719 L 557.863281 12.84375 Z M 413.15625 161.546875 L 412.449219 160.839844 L 561.15625 12.136719 L 561.863281 12.84375 Z M 417.15625 161.546875 L 416.449219 160.839844 L 565.15625 12.136719 L 565.863281 12.84375 Z M 421.15625 161.546875 L 420.449219 160.839844 L 569.15625 12.136719 L 569.863281 12.84375 Z M 425.15625 161.546875 L 424.449219 160.839844 L 573.15625 12.136719 L 573.863281 12.84375 Z M 429.15625 161.546875 L 428.449219 160.839844 L 577.15625 12.136719 L 577.863281 12.84375 Z M 433.15625 161.546875 L 432.449219 160.839844 L 581.15625 12.136719 L 581.863281 12.84375 Z M 437.15625 161.546875 L 436.449219 160.839844 L 585.15625 12.136719 L 585.863281 12.84375 Z M 441.15625 161.546875 L 440.449219 160.839844 L 589.15625 12.136719 L 589.863281 12.84375 Z M 445.15625 161.546875 L 444.449219 160.839844 L 593.15625 12.136719 L 593.863281 12.84375 Z M 449.15625 161.546875 L 448.449219 160.839844 L 597.15625 12.136719 L 597.863281 12.84375 Z M 453.15625 161.546875 L 452.449219 160.839844 L 601.15625 12.136719 L 601.863281 12.84375 Z M 457.15625 161.546875 L 456.449219 160.839844 L 605.15625 12.136719 L 605.863281 12.84375 Z M 461.15625 161.546875 L 460.449219 160.839844 L 609.15625 12.136719 L 609.863281 12.84375 Z M 465.15625 161.546875 L 464.449219 160.839844 L 613.15625 12.136719 L 613.863281 12.84375 Z M 469.15625 161.546875 L 468.449219 160.839844 L 617.15625 12.136719 L 617.863281 12.84375 Z M 473.15625 161.546875 L 472.449219 160.839844 L 621.15625 12.136719 L 621.863281 12.84375 Z M 477.15625 161.546875 L 476.449219 160.839844 L 625.15625 12.136719 L 625.863281 12.84375 L 477.15625 161.546875" fill="#100f0d"/></g></g></g></svg>